# xmcd
#
# Track frame offsets:
#	150
#	7575
#	35324
#	54605
#	71030
#	90980
#	104580
#	120329
#	136639
#	149238
#	170202
#
# Disc length: 2387 seconds
#
# Revision: 1
# Processed by: cddbd v1.5.1PL0 Copyright (c) Steve Scherf et al.
# Submitted via: CDex 1.50Beta5
#
DISCID=9109510b
DTITLE=DSW - Airy-Fairy
DYEAR=1900
DGENRE=Soundtrack
TTITLE0=回顧緑
TTITLE1=鳥の詩
TTITLE2=野道
TTITLE3=虹
TTITLE4=菊次郎の夏影2
TTITLE5=水たまり
TTITLE6=蝉衣
TTITLE7=月童
TTITLE8=ふたり
TTITLE9=青空
TTITLE10=穏海
EXTD=
EXTT0=
EXTT1=
EXTT2=
EXTT3=
EXTT4=
EXTT5=
EXTT6=
EXTT7=
EXTT8=
EXTT9=
EXTT10=
PLAYORDER=
